<svg height="526" width="720" xmlns="http://www.w3.org/2000/svg">
<rect height="526" fill="#555" width="720"></rect>
<text fill="#7f7" font-family="Courier New" font-size="12" xml:space="preserve">
<tspan x="10" y="26">1 megabytes installed</tspan>
<tspan x="10" y="42"></tspan>
<tspan x="10" y="58">node_modules</tspan>
<tspan x="10" y="74">└─┬ is-online@7.0.0 </tspan>
<tspan x="10" y="90">  ├─┬ got@6.7.1 </tspan>
<tspan x="10" y="106">  │ ├─┬ create-error-class@3.0.2 </tspan>
<tspan x="10" y="122">  │ │ └── capture-stack-trace@1.0.0 </tspan>
<tspan x="10" y="138">  │ ├── duplexer3@0.1.4 </tspan>
<tspan x="10" y="154">  │ ├── get-stream@3.0.0 </tspan>
<tspan x="10" y="170">  │ ├── is-redirect@1.0.0 </tspan>
<tspan x="10" y="186">  │ ├── is-retry-allowed@1.1.0 </tspan>
<tspan x="10" y="202">  │ ├── is-stream@1.1.0 </tspan>
<tspan x="10" y="218">  │ ├── lowercase-keys@1.0.0 </tspan>
<tspan x="10" y="234">  │ ├── safe-buffer@5.0.1 </tspan>
<tspan x="10" y="250">  │ ├── timed-out@4.0.1 </tspan>
<tspan x="10" y="266">  │ ├── unzip-response@2.0.1 </tspan>
<tspan x="10" y="282">  │ └─┬ url-parse-lax@1.0.0 </tspan>
<tspan x="10" y="298">  │   └── prepend-http@1.0.4 </tspan>
<tspan x="10" y="314">  ├─┬ p-any@1.0.0 </tspan>
<tspan x="10" y="330">  │ └─┬ p-some@1.1.0 </tspan>
<tspan x="10" y="346">  │   └─┬ aggregate-error@1.0.0 </tspan>
<tspan x="10" y="362">  │     ├── clean-stack@1.1.1 </tspan>
<tspan x="10" y="378">  │     └── indent-string@3.1.0 </tspan>
<tspan x="10" y="394">  ├── p-timeout@1.0.0 </tspan>
<tspan x="10" y="410">  └─┬ public-ip@2.3.3 </tspan>
<tspan x="10" y="426">    ├─┬ dns-socket@1.6.1 </tspan>
<tspan x="10" y="442">    │ └─┬ dns-packet@1.1.1 </tspan>
<tspan x="10" y="458">    │   └── ip@1.1.5 </tspan>
<tspan x="10" y="474">    ├─┬ is-ip@2.0.0 </tspan>
<tspan x="10" y="490">    │ └── ip-regex@2.1.0 </tspan>
<tspan x="10" y="506">    └── pify@2.3.0</tspan>
</text>
</svg>
